<svg width="1408" height="1693" viewBox="0 0 1408 1693" fill="none" xmlns="http://www.w3.org/2000/svg">
<path fill-rule="evenodd" clip-rule="evenodd" d="M703.86 63.5C731.075 63.5 753.138 85.5609 753.138 112.774V226.886C847.188 228.177 941.204 233.165 1034.96 241.848L1056.75 243.866C1205.55 257.649 1320.13 381.205 1322.66 530.611L1323.46 577.487C1326.55 759.787 1311.85 941.956 1279.58 1121.41C1264.89 1203.08 1193.82 1262.5 1110.83 1262.5H1096.31C1021.63 1262.5 953.977 1218.5 923.701 1150.25L854.015 993.142C796.26 862.934 611.46 862.934 553.706 993.142L484.02 1150.25C453.745 1218.5 386.087 1262.5 311.414 1262.5H296.89C213.906 1262.5 142.832 1203.08 128.145 1121.41C95.8715 941.956 81.1747 759.787 84.2648 577.487L85.0592 530.611C87.5921 381.205 202.175 257.649 350.978 243.866L372.765 241.848C466.521 233.165 560.533 228.177 654.582 226.886V112.774C654.582 85.5609 676.645 63.5 703.86 63.5ZM1032.38 441.267C1032.38 404.983 1002.97 375.568 966.678 375.568C930.389 375.568 900.973 404.983 900.973 441.267V457.692C900.973 493.976 930.389 523.39 966.678 523.39C1002.97 523.39 1032.38 493.976 1032.38 457.692V441.267ZM441.043 391.993C468.259 391.993 490.322 414.054 490.322 441.267V523.39H572.451C599.666 523.39 621.729 545.451 621.729 572.664C621.729 599.877 599.666 621.938 572.451 621.938H490.322V704.062C490.322 731.274 468.259 753.336 441.043 753.336C413.827 753.336 391.765 731.274 391.765 704.062V621.938H309.634C282.418 621.938 260.356 599.877 260.356 572.664C260.356 545.451 282.418 523.39 309.634 523.39H391.765V441.267C391.765 414.054 413.827 391.993 441.043 391.993ZM966.678 621.938C1002.97 621.938 1032.38 651.352 1032.38 687.637V704.062C1032.38 740.347 1002.97 769.76 966.678 769.76C930.389 769.76 900.973 740.347 900.973 704.062V687.637C900.973 651.352 930.389 621.938 966.678 621.938ZM1098.09 638.363C1134.38 638.363 1163.79 608.95 1163.79 572.664C1163.79 536.38 1134.38 506.966 1098.09 506.966H1081.66C1045.37 506.966 1015.96 536.38 1015.96 572.664C1015.96 608.95 1045.37 638.363 1081.66 638.363H1098.09ZM917.4 572.664C917.4 608.95 887.984 638.363 851.695 638.363H835.269C798.98 638.363 769.565 608.95 769.565 572.664C769.565 536.38 798.98 506.966 835.269 506.966H851.695C887.984 506.966 917.4 536.38 917.4 572.664Z" fill="#000537"/>
<path d="M402.362 374.5C430.754 374.5 453.771 397.517 453.771 425.909V511.591H539.453C567.844 511.591 590.862 534.608 590.862 563C590.862 591.392 567.844 614.409 539.453 614.409H453.771V700.091C453.771 728.482 430.754 751.5 402.362 751.5C373.97 751.5 350.953 728.482 350.953 700.091V614.409H265.271C236.879 614.409 213.862 591.392 213.862 563C213.862 534.608 236.879 511.591 265.271 511.591H350.953V425.909C350.953 397.517 373.97 374.5 402.362 374.5Z" fill="#0C42FC"/>
<path d="M1067.2 690.333C1067.2 650.199 1034.66 617.667 994.529 617.667C954.395 617.667 921.862 650.199 921.862 690.333V708.5C921.862 748.634 954.395 781.166 994.529 781.166C1034.66 781.166 1067.2 748.634 1067.2 708.5V690.333Z" fill="#8F54FD"/>
<path d="M994.529 345.167C1034.66 345.167 1067.2 377.701 1067.2 417.833V436C1067.2 476.132 1034.66 508.666 994.529 508.666C954.395 508.666 921.862 476.132 921.862 436V417.833C921.862 377.701 954.395 345.167 994.529 345.167Z" fill="#8F54FD"/>
<path d="M1212.53 563.167C1212.53 603.3 1180 635.833 1139.86 635.833H1121.7C1081.56 635.833 1049.03 603.3 1049.03 563.167C1049.03 523.034 1081.56 490.5 1121.7 490.5H1139.86C1180 490.5 1212.53 523.034 1212.53 563.167Z" fill="#3EF9FF"/>
<path d="M882.362 635.833C922.496 635.833 955.029 603.3 955.029 563.167C955.029 523.034 922.496 490.5 882.362 490.5H864.195C824.062 490.5 791.529 523.034 791.529 563.167C791.529 603.3 824.062 635.833 864.195 635.833H882.362Z" fill="#3EF9FF"/>
<path fill-rule="evenodd" clip-rule="evenodd" d="M758.362 54.5C758.362 24.4007 733.961 0 703.862 0C673.763 0 649.362 24.4007 649.362 54.5V162.547C544.787 163.975 440.254 169.518 336.007 179.175L311.91 181.407C138.114 197.506 4.28477 341.829 1.32724 516.345L0.447971 568.188C-2.98916 771.008 13.3594 973.675 49.2618 1173.33C67.0622 1272.31 153.197 1344.33 253.768 1344.33H269.831C359.6 1344.33 440.937 1291.43 477.333 1209.37L554.403 1035.6C611.888 905.986 795.836 905.986 853.323 1035.6L930.393 1209.37C966.785 1291.43 1048.13 1344.33 1137.89 1344.33H1153.96C1254.53 1344.33 1340.66 1272.31 1358.47 1173.33C1394.36 973.675 1410.71 771.008 1407.28 568.188L1406.4 516.345C1403.44 341.828 1269.61 197.506 1095.81 181.407L1071.72 179.175C967.468 169.518 862.937 163.975 758.362 162.547V54.5ZM346.061 287.71C584.086 265.662 823.638 265.662 1061.67 287.71L1085.76 289.942C1204.19 300.913 1295.4 399.265 1297.41 518.192L1298.29 570.034C1301.61 765.769 1285.83 961.358 1251.18 1154.03C1242.72 1201.09 1201.77 1235.33 1153.96 1235.33H1137.89C1091.23 1235.33 1048.95 1207.84 1030.03 1165.18L952.963 991.413C857.145 775.39 550.576 775.39 454.764 991.413L377.693 1165.18C358.775 1207.84 316.494 1235.33 269.831 1235.33H253.768C205.954 1235.33 165.004 1201.09 156.541 1154.03C121.893 961.358 106.115 765.769 109.433 570.034L110.311 518.192C112.327 399.265 203.527 300.913 321.965 289.942L346.061 287.71Z" fill="#0C42FD"/>
<path d="M77.8555 1692.5C62.5498 1692.5 50.0269 1686.59 40.2869 1674.76C30.5469 1662.93 25.6769 1645.08 25.6769 1621.2C25.6769 1607.98 27.3002 1594.07 30.5469 1579.46C33.7936 1564.85 38.3157 1550.47 44.1133 1536.33C49.911 1522.18 56.6362 1509.08 64.2891 1497.02C76.58 1477.54 90.7262 1461.66 106.728 1449.37C122.729 1437.08 139.542 1430.93 157.167 1430.93C171.081 1430.93 181.749 1434.53 189.17 1441.72C196.823 1448.67 202.157 1457.72 205.171 1468.85C208.186 1479.75 209.693 1491.11 209.693 1502.93C209.693 1530.53 205.403 1556.27 196.823 1580.15C188.474 1603.8 177.575 1623.86 164.124 1640.33C150.674 1657.25 136.296 1670.24 120.99 1679.28C105.916 1688.09 91.5379 1692.5 77.8555 1692.5ZM96.6398 1635.11C107.076 1635.11 116.236 1631.63 124.121 1624.67C132.237 1617.72 139.078 1608.91 144.644 1598.24C150.21 1587.34 154.384 1575.98 157.167 1564.15C159.95 1552.33 161.341 1541.66 161.341 1532.15C161.341 1528.44 160.993 1524.5 160.298 1520.33C159.602 1515.92 158.095 1512.09 155.776 1508.85C153.457 1505.6 149.862 1503.98 144.992 1503.98C134.324 1503.98 124.7 1507.92 116.12 1515.8C107.539 1523.46 100.35 1533.2 94.5527 1545.02C88.755 1557.08 84.4648 1568.91 81.6819 1580.5C78.8991 1592.09 77.5076 1602.64 77.5076 1612.15C77.5076 1617.02 79.2469 1622.12 82.7255 1627.46C86.2041 1632.56 90.8422 1635.11 96.6398 1635.11Z" fill="#0C42FD"/>
<path d="M187.836 1691.46C191.082 1680.33 194.213 1667.69 197.228 1653.54C200.242 1639.17 203.025 1624.56 205.576 1609.72C208.359 1594.88 210.91 1581.08 213.229 1568.33C215.548 1555.57 217.403 1545.02 218.795 1536.67C221.346 1521.14 223.781 1505.49 226.1 1489.72C228.651 1473.72 231.086 1457.49 233.405 1441.02L349.937 1435.11L339.849 1477.89H285.236L274.452 1539.8C278.163 1539.57 281.641 1539.46 284.888 1539.46C288.366 1539.46 291.729 1539.46 294.976 1539.46H311.325C314.108 1539.46 316.543 1539.46 318.63 1539.46C320.717 1539.46 322.572 1539.34 324.196 1539.11C323.964 1542.36 323.616 1545.6 323.152 1548.85C322.688 1551.86 322.224 1554.99 321.761 1558.24L318.63 1577.02C313.76 1577.02 306.687 1576.91 297.411 1576.67C288.366 1576.21 278.742 1575.86 268.538 1575.63L252.537 1678.24C248.595 1678.93 244.652 1679.63 240.71 1680.33C236.999 1681.02 233.173 1681.83 229.231 1682.76C222.737 1683.92 215.664 1685.31 208.011 1686.93C200.358 1688.56 193.633 1690.07 187.836 1691.46Z" fill="#0C42FD"/>
<path d="M306.392 1691.46C309.639 1680.33 312.77 1667.69 315.785 1653.54C318.799 1639.17 321.582 1624.56 324.133 1609.72C326.916 1594.88 329.467 1581.08 331.786 1568.33C334.105 1555.57 335.96 1545.02 337.352 1536.67C339.903 1521.14 342.338 1505.49 344.657 1489.72C347.208 1473.72 349.643 1457.49 351.962 1441.02L468.494 1435.11L458.406 1477.89H403.793L393.009 1539.8C396.719 1539.57 400.198 1539.46 403.445 1539.46C406.923 1539.46 410.286 1539.46 413.532 1539.46H429.882C432.665 1539.46 435.1 1539.46 437.187 1539.46C439.274 1539.46 441.129 1539.34 442.753 1539.11C442.521 1542.36 442.173 1545.6 441.709 1548.85C441.245 1551.86 440.781 1554.99 440.318 1558.24L437.187 1577.02C432.317 1577.02 425.244 1576.91 415.968 1576.67C406.923 1576.21 397.299 1575.86 387.095 1575.63L371.094 1678.24C367.152 1678.93 363.209 1679.63 359.267 1680.33C355.556 1681.02 351.73 1681.83 347.787 1682.76C341.294 1683.92 334.221 1685.31 326.568 1686.93C318.915 1688.56 312.19 1690.07 306.392 1691.46Z" fill="#0C42FD"/>
<path d="M422.514 1691.46C429.471 1660.15 436.081 1629.54 442.342 1599.63C444.893 1587.57 447.444 1574.7 449.995 1561.02C452.778 1547.11 455.561 1533.08 458.344 1518.93C461.126 1504.79 463.677 1491.46 465.996 1478.93C468.316 1466.18 470.171 1455.05 471.562 1445.54C480.838 1442.76 490.81 1440.21 501.478 1437.89C512.377 1435.57 522.117 1434.41 530.698 1434.41C544.612 1434.41 555.628 1437.43 563.744 1443.46C571.861 1449.25 577.659 1457.14 581.137 1467.11C584.616 1477.08 586.355 1487.98 586.355 1499.8C586.355 1512.79 583.92 1525.31 579.05 1537.37C574.412 1549.2 568.035 1559.86 559.918 1569.37C552.033 1578.88 542.873 1586.41 532.437 1591.98C522.233 1597.54 511.566 1600.33 500.434 1600.33H496.608C494.753 1608.21 493.013 1616.79 491.39 1626.07C489.767 1635.34 488.375 1643.92 487.216 1651.8C486.288 1656.44 485.476 1661.08 484.781 1665.72C484.085 1670.36 483.389 1674.99 482.694 1679.63L422.514 1691.46ZM503.565 1563.8C508.899 1562.41 514.233 1558.93 519.567 1553.37C524.9 1547.57 529.307 1540.27 532.785 1531.46C536.264 1522.64 538.003 1513.02 538.003 1502.59C538.003 1494.01 536.032 1487.51 532.089 1483.11C528.379 1478.7 524.205 1476.5 519.567 1476.5C517.016 1491.8 514.465 1506.3 511.914 1519.98C509.363 1533.66 506.58 1548.27 503.565 1563.8Z" fill="#FFFFFF"/>
<path d="M556.755 1691.46L574.843 1601.02C577.626 1584.33 580.641 1567.17 583.888 1549.54C587.134 1531.92 590.149 1514.53 592.932 1497.37C595.947 1480.21 598.266 1464.09 599.889 1449.02C613.108 1444.85 627.37 1441.83 642.675 1439.98C657.981 1437.89 673.171 1436.85 688.245 1436.85C705.87 1436.85 717.813 1440.67 724.074 1448.33C730.567 1455.98 733.814 1466.3 733.814 1479.28C733.814 1491.11 731.031 1503.05 725.466 1515.11C719.9 1526.93 712.595 1537.72 703.551 1547.46C694.738 1556.96 684.998 1564.5 674.33 1570.07C678.505 1579.34 682.911 1589.54 687.549 1600.67C692.419 1611.57 696.941 1622.01 701.116 1631.98C703.435 1637.78 705.754 1643.57 708.073 1649.37C710.624 1655.17 713.059 1660.96 715.378 1666.76L661.46 1685.54C659.141 1677.43 656.938 1669.66 654.85 1662.24C652.763 1654.82 650.792 1647.51 648.937 1640.33C646.618 1631.75 644.415 1623.51 642.328 1615.63C640.24 1607.51 638.385 1600.33 636.762 1594.07C635.37 1587.8 634.559 1583.4 634.327 1580.85L629.805 1582.24C628.413 1589.66 626.674 1598.7 624.587 1609.37C622.732 1620.04 620.992 1630.36 619.369 1640.33L613.108 1676.85L556.755 1691.46ZM638.501 1540.5C642.675 1540.04 647.777 1538.3 653.807 1535.28C660.068 1532.04 666.214 1528.09 672.243 1523.46C678.505 1518.82 683.723 1514.07 687.897 1509.2C692.071 1504.33 694.158 1500.04 694.158 1496.33C694.158 1491.69 691.376 1488.67 685.81 1487.28C680.476 1485.66 673.403 1484.85 664.59 1484.85H656.938C655.546 1485.08 654.271 1485.2 653.111 1485.2C651.952 1485.2 650.792 1485.2 649.633 1485.2L638.501 1540.5Z" fill="#FFFFFF"/>
<path d="M764.398 1692.5C749.093 1692.5 736.57 1686.59 726.83 1674.76C717.09 1662.93 712.22 1645.08 712.22 1621.2C712.22 1607.98 713.843 1594.07 717.09 1579.46C720.336 1564.85 724.859 1550.47 730.656 1536.33C736.454 1522.18 743.179 1509.08 750.832 1497.02C763.123 1477.54 777.269 1461.66 793.271 1449.37C809.272 1437.08 826.085 1430.93 843.71 1430.93C857.624 1430.93 868.292 1434.53 875.713 1441.72C883.366 1448.67 888.699 1457.72 891.714 1468.85C894.729 1479.75 896.236 1491.11 896.236 1502.93C896.236 1530.53 891.946 1556.27 883.366 1580.15C875.017 1603.8 864.118 1623.86 850.667 1640.33C837.217 1657.25 822.838 1670.24 807.533 1679.28C792.459 1688.09 778.081 1692.5 764.398 1692.5ZM783.183 1635.11C793.618 1635.11 802.779 1631.63 810.663 1624.67C818.78 1617.72 825.621 1608.91 831.187 1598.24C836.753 1587.34 840.927 1575.98 843.71 1564.15C846.493 1552.33 847.884 1541.66 847.884 1532.15C847.884 1528.44 847.536 1524.5 846.841 1520.33C846.145 1515.92 844.638 1512.09 842.318 1508.85C839.999 1505.6 836.405 1503.98 831.535 1503.98C820.867 1503.98 811.243 1507.92 802.663 1515.8C794.082 1523.46 786.893 1533.2 781.096 1545.02C775.298 1557.08 771.008 1568.91 768.225 1580.5C765.442 1592.09 764.05 1602.64 764.05 1612.15C764.05 1617.02 765.79 1622.12 769.268 1627.46C772.747 1632.56 777.385 1635.11 783.183 1635.11Z" fill="#FFFFFF"/>
<path d="M860.173 1689.02C870.377 1657.95 880.117 1627.69 889.393 1598.24C893.336 1586.18 897.394 1573.31 901.568 1559.63C905.743 1545.95 909.917 1532.27 914.091 1518.59C918.265 1504.67 922.208 1491.34 925.918 1478.59C929.629 1465.83 932.76 1454.47 935.311 1444.5C948.065 1444.5 960.124 1443.8 971.488 1442.41C977.285 1441.72 983.199 1441.02 989.228 1440.33C995.49 1439.63 1001.87 1439.05 1008.36 1438.59L1006.27 1455.63C1005.81 1458.88 1005.35 1462.24 1004.88 1465.72C1004.42 1468.96 1003.95 1472.33 1003.49 1475.8C1003.03 1479.28 1002.45 1482.88 1001.75 1486.59C1001.06 1490.07 1000.48 1493.66 1000.01 1497.37C999.084 1504.56 997.693 1514.64 995.838 1527.63C993.982 1540.38 991.779 1554.3 989.228 1569.37H993.751C1000.48 1551.75 1006.04 1537.14 1010.45 1525.54C1014.85 1513.72 1018.45 1504.09 1021.23 1496.67C1025.17 1485.78 1029.46 1474.76 1034.1 1463.63C1038.74 1452.5 1042.57 1443.92 1045.58 1437.89C1051.15 1437.43 1057.76 1436.73 1065.41 1435.8C1073.29 1434.64 1081.18 1433.37 1089.06 1431.98C1097.18 1430.59 1104.14 1429.43 1109.94 1428.5C1106.69 1447.98 1103.67 1467.69 1100.89 1487.63C1098.34 1507.34 1096.02 1526.24 1093.93 1544.33C1092.08 1562.18 1090.45 1578.3 1089.06 1592.67C1087.67 1607.05 1086.4 1621.31 1085.24 1635.46C1084.08 1649.37 1082.92 1663.17 1081.76 1676.85L1021.23 1687.63C1021.23 1687.17 1021.58 1681.95 1022.27 1671.98C1022.97 1662.01 1024.13 1649.6 1025.75 1634.76C1027.38 1619.92 1029 1605.89 1030.62 1592.67C1032.25 1579.22 1033.87 1568.21 1035.49 1559.63H1032.36C1026.57 1577.25 1019.49 1596.5 1011.14 1617.37C1003.03 1638.24 995.026 1661.31 987.141 1686.59C979.025 1686.82 972.067 1687.17 966.27 1687.63C960.472 1687.86 953.747 1688.21 946.094 1688.67L957.226 1559.63H952.008C951.776 1562.18 950.732 1567.17 948.877 1574.59C947.022 1581.78 944.819 1590.12 942.268 1599.63C939.717 1608.91 937.05 1618.18 934.267 1627.46C923.831 1663.86 918.265 1683.11 917.57 1685.2L860.173 1689.02Z" fill="#FFFFFF"/>
<path d="M1084.94 1691.46C1091.9 1660.15 1098.5 1629.54 1104.77 1599.63C1107.32 1587.57 1109.87 1574.7 1112.42 1561.02C1115.2 1547.11 1117.98 1533.08 1120.77 1518.93C1123.55 1504.79 1126.1 1491.46 1128.42 1478.93C1130.74 1466.18 1132.59 1455.05 1133.99 1445.54C1143.26 1442.76 1153.23 1440.21 1163.9 1437.89C1174.8 1435.57 1184.54 1434.41 1193.12 1434.41C1207.04 1434.41 1218.05 1437.43 1226.17 1443.46C1234.28 1449.25 1240.08 1457.14 1243.56 1467.11C1247.04 1477.08 1248.78 1487.98 1248.78 1499.8C1248.78 1512.79 1246.34 1525.31 1241.47 1537.37C1236.84 1549.2 1230.46 1559.86 1222.34 1569.37C1214.46 1578.88 1205.3 1586.41 1194.86 1591.98C1184.66 1597.54 1173.99 1600.33 1162.86 1600.33H1159.03C1157.18 1608.21 1155.44 1616.79 1153.81 1626.07C1152.19 1635.34 1150.8 1643.92 1149.64 1651.8C1148.71 1656.44 1147.9 1661.08 1147.2 1665.72C1146.51 1670.36 1145.81 1674.99 1145.12 1679.63L1084.94 1691.46ZM1165.99 1563.8C1171.32 1562.41 1176.66 1558.93 1181.99 1553.37C1187.32 1547.57 1191.73 1540.27 1195.21 1531.46C1198.69 1522.64 1200.43 1513.02 1200.43 1502.59C1200.43 1494.01 1198.46 1487.51 1194.51 1483.11C1190.8 1478.7 1186.63 1476.5 1181.99 1476.5C1179.44 1491.8 1176.89 1506.3 1174.34 1519.98C1171.79 1533.66 1169 1548.27 1165.99 1563.8Z" fill="#FFFFFF"/>
<path d="M1247.06 1691.46C1249.61 1678.7 1252.16 1666.07 1254.71 1653.54C1257.49 1640.79 1260.04 1628.27 1262.36 1615.98C1271.17 1571.92 1278.36 1529.72 1283.93 1489.37C1281.38 1488.91 1278.71 1488.67 1275.93 1488.67C1273.15 1488.44 1270.48 1488.44 1267.93 1488.67C1262.36 1489.14 1256.91 1488.44 1251.58 1486.59C1251.81 1484.73 1251.93 1482.76 1251.93 1480.67C1251.93 1478.36 1251.93 1476.04 1251.93 1473.72C1251.93 1471.17 1251.93 1468.73 1251.93 1466.41C1251.93 1463.86 1252.04 1461.43 1252.27 1459.11C1252.51 1456.56 1252.62 1453.89 1252.62 1451.11C1252.62 1448.09 1252.74 1445.08 1252.97 1442.07C1259 1442.53 1265.03 1442.88 1271.06 1443.11C1277.09 1443.34 1283.12 1443.46 1289.15 1443.46C1306.31 1443.46 1322.66 1442.88 1338.19 1441.72C1353.96 1440.56 1368.46 1439.17 1381.68 1437.54L1377.85 1456.33L1374.72 1472.67C1373.56 1478.7 1372.52 1483.46 1371.59 1486.93C1369.04 1487.63 1366.49 1488.21 1363.94 1488.67C1361.39 1489.14 1358.83 1489.49 1356.28 1489.72C1353.73 1489.95 1351.07 1490.3 1348.28 1490.76C1345.73 1491.22 1343.18 1491.69 1340.63 1492.15C1337.15 1509.31 1334.25 1524.15 1331.93 1536.67C1329.85 1549.2 1327.87 1561.25 1326.02 1572.85C1324.4 1584.21 1322.43 1596.73 1320.11 1610.41C1316.16 1633.83 1312.69 1657.6 1309.67 1681.72L1247.06 1691.46Z" fill="#FFFFFF"/>
</svg>
